<?xml version="1.0" encoding="utf-8"?>
<!-- Generator: Adobe Illustrator 26.0.1, SVG Export Plug-In . SVG Version: 6.00 Build 0)  -->
<svg version="1.1" id="Layer_1" xmlns="http://www.w3.org/2000/svg" xmlns:xlink="http://www.w3.org/1999/xlink" x="0px" y="0px"
	 viewBox="0 0 601.2 411.39" style="enable-background:new 0 0 601.2 411.39;" xml:space="preserve">
<style type="text/css">
	.st0{fill:#FBB572;}
</style>
<g>
	<g>
		<path class="st0" d="M1.72,85.03c4.29,0,21.47-0.86,80.73-0.86c0.86,0,2.58,0.86,2.58,1.72c16.32,43.8,60.12,80.73,116.8,100.49
			c2.58,0.86,2.58,4.29,0,5.15c-5.15,2.58-12.88,5.15-15.46,6.87c-5.15,2.58-12.88,8.59-17.18,15.46
			c-3.44,5.15-6.01,12.02-7.73,16.32c-0.86,2.58-0.86,6.87-0.86,12.02c0,11.17,1.72,26.62,6.01,36.93
			c4.29,12.02,6.87,15.46,12.02,27.48c2.58,5.15,4.29,10.31,5.15,12.02c0,0.86,0,1.72,0,2.58c-1.72,1.72-4.29,6.01-9.45,8.59
			c-8.59,5.15-27.48,6.87-36.93,6.87l0,0c-9.45,0-28.34-1.72-36.93-6.87c-5.15-2.58-8.59-6.87-9.45-8.59
			c-0.86-0.86-0.86-1.72,0-2.58c0.86-2.58,3.44-6.87,5.15-12.02c5.15-12.02,7.73-16.32,12.02-27.48
			c4.29-10.31,6.01-25.77,6.01-36.93c0-5.15,0-9.45-0.86-12.02c-0.86-4.29-4.29-11.17-7.73-16.32
			c-4.29-6.87-12.02-12.88-17.18-15.46c-3.44-1.72-16.32-6.87-20.61-9.45c-6.01-3.44-13.74-8.59-19.75-12.88
			c-6.01-4.29-18.04-16.32-22.33-21.47c-8.59-11.17-17.18-24.05-20.61-37.79C0,99.63,0.86,92.76,0,86.74
			C0,85.89,0.86,85.03,1.72,85.03"/>
		<path class="st0" d="M520.47,0.86C511.02,0.86,469.79,0,299.74,0S88.46,0.86,79.01,0.86c-1.72,0-3.44,1.72-2.58,3.44
			c0.86,8.59,0.86,20.61,8.59,48.1c6.01,22.33,19.75,42.94,33.5,60.98c7.73,9.45,26.62,27.48,36.07,35.21
			c8.59,6.87,21.47,15.46,31.78,20.61c7.73,4.29,27.48,12.02,33.5,15.46c8.59,4.29,21.47,13.74,28.34,24.91
			c5.15,8.59,10.31,19.75,12.02,26.62c0.86,4.29,1.72,11.17,1.72,19.75c0,18.89-3.44,42.94-9.45,60.12
			c-6.87,18.89-11.17,25.77-19.75,45.52c-3.44,8.59-6.87,16.32-8.59,19.75c-0.86,1.72-0.86,3.44,0,5.15
			c2.58,3.44,6.87,9.45,15.46,14.6c14.6,7.73,44.66,10.31,60.12,10.31l0,0c15.46,0,45.52-2.58,60.12-10.31
			c8.59-4.29,12.88-11.17,15.46-14.6c0.86-1.72,0.86-3.44,0.86-4.29c-1.72-3.44-5.15-12.02-8.59-19.75
			c-8.59-19.75-12.02-25.77-19.75-45.52c-6.01-17.18-9.45-42.08-9.45-60.12c0-7.73,0-14.6,1.72-19.75
			c1.72-7.73,6.87-18.89,12.02-26.62c6.87-11.17,19.75-20.61,28.34-24.91c6.01-3.44,25.77-11.17,33.5-15.46
			c10.31-5.15,23.19-13.74,31.78-20.61c9.45-7.73,28.34-26.62,36.07-35.21c14.6-18.04,27.48-38.65,33.5-60.98
			c7.73-27.48,7.73-39.51,8.59-48.1C523.04,2.58,522.18,0.86,520.47,0.86"/>
		<path class="st0" d="M599.48,85.03c-4.29,0-21.47-0.86-80.73-0.86c-0.86,0-2.58,0.86-2.58,1.72
			c-16.32,43.8-60.12,80.73-116.8,100.49c-2.58,0.86-2.58,4.29,0,5.15c5.15,2.58,12.88,5.15,15.46,6.87
			c5.15,2.58,12.88,8.59,17.18,15.46c3.44,5.15,6.01,12.02,7.73,16.32c0.86,2.58,0.86,6.87,0.86,12.02
			c0,11.17-1.72,26.62-6.01,36.93c-4.29,12.02-6.87,15.46-12.02,27.48c-2.58,5.15-4.29,10.31-5.15,12.02c0,0.86,0,1.72,0,2.58
			c1.72,1.72,4.29,6.01,9.45,8.59c8.59,5.15,27.48,6.87,36.93,6.87l0,0c9.45,0,28.34-1.72,36.93-6.87c5.15-2.58,7.73-6.87,9.45-8.59
			c0.86-0.86,0.86-1.72,0-2.58c-0.86-2.58-3.44-6.87-5.15-12.02c-5.15-12.02-7.73-16.32-12.02-27.48
			c-4.29-10.31-6.01-25.77-6.01-36.93c0-5.15,0-9.45,0.86-12.02c0.86-4.29,4.29-11.17,7.73-16.32c4.29-6.87,12.02-12.88,17.18-15.46
			c3.44-1.72,16.32-6.87,20.61-9.45c6.01-3.44,13.74-8.59,19.75-12.88c6.01-4.29,18.04-16.32,22.33-21.47
			c8.59-11.17,17.18-24.05,20.61-37.79c5.15-17.18,4.29-24.05,5.15-30.06C601.2,85.89,600.34,85.03,599.48,85.03"/>
	</g>
	<g>
		<path class="st0" d="M564.95,332.87c0,6.25-5.15,11.16-11.86,11.16c-6.64,0-11.93-4.91-11.93-11.16c0-6.12,5.3-11.03,11.93-11.03
			C559.8,321.85,564.95,326.75,564.95,332.87z M544.12,332.87c0,4.91,3.81,8.81,9.04,8.81c5.08,0,8.83-3.9,8.83-8.74
			c0-4.91-3.74-8.87-8.9-8.87C547.93,324.07,544.12,328.03,544.12,332.87z M551.25,338.65h-2.68v-11.03
			c1.06-0.2,2.54-0.34,4.45-0.34c2.19,0,3.18,0.34,4.02,0.81c0.64,0.47,1.13,1.34,1.13,2.42c0,1.21-0.99,2.15-2.4,2.55v0.14
			c1.13,0.4,1.77,1.21,2.12,2.69c0.35,1.68,0.56,2.35,0.85,2.76h-2.89c-0.35-0.4-0.56-1.41-0.92-2.69c-0.21-1.21-0.92-1.75-2.4-1.75
			h-1.27V338.65z M551.32,332.4h1.27c1.48,0,2.68-0.47,2.68-1.61c0-1.01-0.78-1.68-2.47-1.68c-0.71,0-1.2,0.07-1.48,0.14V332.4z"/>
	</g>
</g>
</svg>
