<?xml version="1.0" encoding="utf-8"?>
<!-- Generator: Adobe Illustrator 25.4.1, SVG Export Plug-In . SVG Version: 6.00 Build 0)  -->
<svg version="1.1" id="Ebene_2_00000001641822118827531900000005551729468332915360_"
	 xmlns="http://www.w3.org/2000/svg" xmlns:xlink="http://www.w3.org/1999/xlink" x="0px" y="0px" viewBox="0 0 200 73.5"
	 style="enable-background:new 0 0 200 73.5;" xml:space="preserve">
<style type="text/css">
	.st0{fill:#FFFFFF;}
</style>
<g>
	<path class="st0" d="M91.7,38.2c-1.5,0-2.8-0.2-4.1-0.7c-1.2-0.5-2.3-1.1-3.2-2c-0.9-0.9-1.6-1.9-2.1-3.1c-0.5-1.2-0.8-2.6-0.8-4.1
		s0.3-2.9,0.8-4.1s1.2-2.3,2.1-3.1c0.9-0.9,2-1.5,3.2-2s2.6-0.7,4.1-0.7s2.9,0.2,4.2,0.5c1.2,0.4,2.3,1,3.3,1.8l-2.8,3.1
		c-0.6-0.6-1.2-1-1.9-1.3c-0.7-0.3-1.6-0.5-2.7-0.5c-0.9,0-1.7,0.2-2.5,0.5c-0.7,0.3-1.4,0.7-1.9,1.3c-0.5,0.6-0.9,1.2-1.2,2
		c-0.3,0.8-0.4,1.6-0.4,2.5s0.1,1.7,0.4,2.5s0.7,1.4,1.2,2s1.2,1,1.9,1.3c0.7,0.3,1.6,0.5,2.5,0.5s1.7-0.1,2.4-0.3
		c0.6-0.2,1.2-0.4,1.5-0.6l0,0l0,0v-0.1v-3.2h-3.4v-3.7h7.2v9.8c-1.2,0.6-2.5,1.1-3.8,1.4C94.5,38.1,93.1,38.2,91.7,38.2"/>
	<path class="st0" d="M107.2,26.8h2.6c0.4,0,0.8,0,1.2,0c0.4,0,0.8-0.1,1.2-0.3c0.4-0.1,0.7-0.4,0.9-0.7c0.2-0.3,0.4-0.7,0.4-1.3
		c0-0.5-0.1-0.9-0.3-1.2c-0.2-0.3-0.5-0.5-0.8-0.7s-0.7-0.3-1.1-0.3c-0.4-0.1-0.8-0.1-1.2-0.1h-2.9
		C107.2,22.2,107.2,26.8,107.2,26.8z M113.4,37.7l-4-7.6h-2.2v7.6h-4V18.9h7.3c1,0,1.9,0.1,2.7,0.3c0.8,0.2,1.6,0.5,2.2,0.9
		s1.1,1,1.5,1.7s0.6,1.6,0.6,2.7c0,1.3-0.3,2.4-1,3.4c-0.7,0.9-1.6,1.5-2.9,1.7l-0.3,0.1l4.8,8H113.4z"/>
	<path class="st0" d="M127,30.4h5l-2.5-6.3L127,30.4z M134.9,37.7l-1.6-4h-7.5l-1.6,4h-4.4l8.1-18.8h3.3l8.2,18.8H134.9z"/>
	<rect x="141.9" y="18.9" class="st0" width="4" height="18.8"/>
	<polygon class="st0" points="150.6,37.7 150.6,18.9 154.5,18.9 154.5,34.1 162.3,34.1 162.3,37.7 	"/>
	<path class="st0" d="M170.4,38.2c-1.2,0-2.4-0.2-3.4-0.6c-1-0.4-2-0.9-2.8-1.7l2.8-3.1c0.4,0.5,1,1,1.6,1.3
		c0.7,0.3,1.4,0.5,2.1,0.5c0.4,0,0.7,0,1.1-0.1c0.4-0.1,0.7-0.2,1-0.4s0.5-0.4,0.7-0.7s0.3-0.6,0.3-1c0-0.6-0.2-1.1-0.7-1.4
		c-0.4-0.3-1-0.6-1.7-0.9c-0.7-0.2-1.4-0.5-2.2-0.7s-1.5-0.5-2.1-0.9s-1.2-0.9-1.6-1.5c-0.4-0.6-0.6-1.5-0.6-2.5s0.2-1.9,0.6-2.6
		c0.4-0.8,0.9-1.4,1.6-1.9c0.7-0.5,1.4-0.9,2.3-1.2c0.9-0.3,1.8-0.4,2.7-0.4c1.1,0,2.1,0.2,3.1,0.5s1.8,0.8,2.6,1.4l-2.7,3
		c-0.3-0.4-0.8-0.7-1.4-0.9c-0.6-0.2-1.2-0.3-1.7-0.3c-0.3,0-0.6,0-1,0.1c-0.3,0.1-0.6,0.2-0.9,0.3c-0.3,0.2-0.6,0.4-0.7,0.6
		c-0.2,0.3-0.3,0.6-0.3,1c0,0.6,0.2,1.1,0.7,1.4c0.4,0.3,1,0.6,1.7,0.8c0.7,0.2,1.4,0.4,2.1,0.6c0.7,0.2,1.4,0.5,2.1,0.9
		c0.6,0.4,1.2,0.9,1.6,1.6c0.4,0.6,0.6,1.5,0.6,2.6c0,1-0.2,2-0.6,2.7c-0.4,0.8-0.9,1.4-1.6,1.9c-0.7,0.5-1.4,0.9-2.3,1.1
		C172.3,38.1,171.3,38.2,170.4,38.2"/>
</g>
<polygon class="st0" points="83.9,57.8 83.8,57.7 83.7,46.5 91,46.3 91.1,48 91,48.1 85.8,48.2 85.9,51.3 90.4,51.2 90.5,52.9 
	90.4,53 85.9,53.1 86,57.7 "/>
<polygon class="st0" points="83.8,57.7 83.7,46.5 91,46.4 91,48 85.8,48.1 85.9,51.4 90.4,51.3 90.4,52.9 85.8,53 85.9,57.7 
	83.9,57.7 "/>
<polygon class="st0" points="83.8,57.7 83.7,46.5 83.8,46.5 91,46.4 91,46.4 91.1,48 91,48.1 85.8,48.1 85.9,51.3 90.4,51.3 
	90.4,51.3 90.4,52.9 90.4,53 85.9,53 85.9,57.7 85.9,57.7 83.9,57.8 "/>
<path class="st0" d="M90.4,52.9h-4.6l0.1,4.7h-2l-0.1-11.2l7.2-0.1v1.6L85.8,48v3.3h4.6V52.9z"/>
<path class="st0" d="M97.6,57.8c-0.9,0-1.7-0.2-2.5-0.7c-0.7-0.4-1.3-1.1-1.7-1.9c-0.4-0.8-0.6-1.8-0.6-2.9v-0.6
	c0-1.1,0.2-2.1,0.6-2.9c0.4-0.9,1-1.5,1.7-2s1.6-0.7,2.5-0.7c1,0,1.8,0.2,2.5,0.6c0.7,0.4,1.3,1.1,1.7,1.9c0.4,0.8,0.6,1.8,0.6,2.9
	v0.6c0,1.1-0.2,2.1-0.6,2.9c-0.4,0.8-0.9,1.5-1.7,2C99.4,57.6,98.6,57.8,97.6,57.8L97.6,57.8z M97.5,47.9c-0.8,0-1.5,0.4-1.9,1
	c-0.5,0.6-0.7,1.6-0.7,2.7v0.6c0,1.2,0.3,2.1,0.7,2.8c0.5,0.6,1.1,0.9,1.9,0.9c0.9,0,1.5-0.3,1.9-1c0.4-0.6,0.7-1.6,0.7-2.8v-0.6
	c0-1.2-0.3-2.1-0.7-2.8C99,48.3,98.4,48,97.5,47.9L97.5,47.9z"/>
<path class="st0" d="M97.6,57.8c-0.9,0-1.7-0.2-2.4-0.6c-0.7-0.4-1.3-1.1-1.7-1.9c-0.4-0.8-0.6-1.8-0.6-2.8v-0.6
	c0-1.1,0.2-2.1,0.6-2.9c0.4-0.8,0.9-1.5,1.7-2c0.7-0.5,1.5-0.7,2.5-0.7l0,0c1,0,1.8,0.2,2.5,0.6c0.7,0.4,1.3,1.1,1.7,1.9
	c0.4,0.8,0.6,1.8,0.6,2.9v0.6c0,1.1-0.2,2.1-0.5,2.9c-0.4,0.8-0.9,1.5-1.6,1.9C99.4,57.5,98.6,57.7,97.6,57.8L97.6,57.8z M97.5,47.9
	c-0.8,0-1.5,0.3-1.9,1c-0.5,0.6-0.7,1.6-0.7,2.8v0.6c0,1.2,0.3,2.2,0.7,2.8c0.5,0.6,1.1,1,2,1s1.5-0.3,2-1c0.5-0.6,0.7-1.6,0.7-2.8
	v-0.6c0-1.2-0.3-2.2-0.7-2.8C99,48.2,98.4,47.9,97.5,47.9L97.5,47.9L97.5,47.9z"/>
<path class="st0" d="M97.6,57.8c-0.9,0-1.7-0.2-2.4-0.6c-0.7-0.4-1.3-1.1-1.7-1.9c-0.4-0.8-0.6-1.8-0.6-2.9v-0.6
	c0-1.1,0.2-2.1,0.6-2.9c0.4-0.8,0.9-1.5,1.7-2c0.7-0.5,1.6-0.7,2.5-0.7l0,0c1,0,1.8,0.2,2.5,0.6c0.7,0.4,1.3,1.1,1.7,1.9
	c0.4,0.8,0.6,1.8,0.6,2.9v0.6c0,1.1-0.2,2.1-0.6,2.9c-0.4,0.8-0.9,1.5-1.7,2C99.4,57.5,98.6,57.8,97.6,57.8L97.6,57.8z M97.5,47.9
	c-0.8,0-1.5,0.3-1.9,1c-0.5,0.6-0.7,1.6-0.7,2.8v0.6c0,1.2,0.3,2.1,0.7,2.8c0.5,0.6,1.1,1,1.9,1c0.9,0,1.5-0.3,2-1
	c0.5-0.6,0.7-1.6,0.7-2.8v-0.6c0-1.2-0.3-2.2-0.7-2.8C99,48.2,98.4,47.9,97.5,47.9L97.5,47.9L97.5,47.9z"/>
<path class="st0" d="M102.3,52.2c0,1.1-0.2,2.1-0.5,2.9c-0.4,0.8-0.9,1.5-1.6,1.9c-0.7,0.5-1.5,0.7-2.5,0.7c-0.9,0-1.7-0.2-2.5-0.6
	c-0.7-0.4-1.3-1.1-1.7-1.9c-0.4-0.8-0.6-1.8-0.6-2.8v-0.6c0-1.1,0.2-2.1,0.6-2.9c0.4-0.8,0.9-1.5,1.6-1.9c0.7-0.5,1.5-0.7,2.4-0.7
	s1.7,0.2,2.5,0.6c0.7,0.4,1.3,1.1,1.7,1.9c0.4,0.8,0.6,1.8,0.6,2.9V52.2z M100.3,51.6c0-1.2-0.3-2.2-0.7-2.8c-0.5-0.7-1.2-1-2-1
	c-0.9,0-1.5,0.3-2,1s-0.7,1.6-0.7,2.8v0.6c0,1.2,0.3,2.2,0.8,2.8c0.5,0.7,1.2,1,2,1c0.9,0,1.5-0.3,2-1s0.7-1.6,0.7-2.9L100.3,51.6z"
	/>
<path class="st0" d="M109.5,57.7c-1.3,0-2.3-0.3-3.1-1c-0.8-0.7-1.2-1.7-1.2-2.9l-0.1-7.5l2.1-0.1l0.1,0.1l0.1,7.5
	c0,0.7,0.2,1.3,0.6,1.6c0.4,0.4,0.9,0.5,1.6,0.5c1.5,0,2.2-0.7,2.2-2.3l-0.1-7.4l2.1-0.1l0.1,0.1l0.1,7.5c0,1.2-0.4,2.2-1.2,2.9
	S110.9,57.7,109.5,57.7L109.5,57.7z"/>
<path class="st0" d="M109.5,57.6c-1.3,0-2.3-0.3-3.1-1c-0.8-0.7-1.2-1.6-1.2-2.9l-0.1-7.5l2-0.1l0.1,7.5c0,0.7,0.2,1.3,0.6,1.7
	s0.9,0.6,1.6,0.6c1.5,0,2.3-0.8,2.2-2.3l-0.1-7.4l2-0.1l0.1,7.5c0,1.2-0.4,2.2-1.1,2.9C111.9,57.2,110.9,57.6,109.5,57.6L109.5,57.6
	z"/>
<path class="st0" d="M109.5,57.6c-1.3,0-2.3-0.3-3.1-1c-0.8-0.7-1.2-1.7-1.2-2.9l-0.1-7.5l0.1-0.1h2l0.1,0.1l0.1,7.5
	c0,0.7,0.2,1.3,0.6,1.7s0.9,0.6,1.6,0.6c1.5,0,2.2-0.8,2.2-2.3l-0.1-7.4l0.1-0.1h2l0.1,0.1l0.1,7.5c0,1.2-0.4,2.2-1.1,2.9
	C111.9,57.3,110.9,57.6,109.5,57.6L109.5,57.6z"/>
<path class="st0" d="M113.7,46.2l0.1,7.5c0,1.2-0.4,2.1-1.1,2.8c-0.8,0.7-1.8,1.1-3.1,1.1c-1.3,0-2.3-0.3-3.1-1
	c-0.8-0.7-1.2-1.6-1.2-2.8l-0.1-7.5h2l0.1,7.5c0,0.7,0.2,1.3,0.6,1.7s1,0.6,1.7,0.6c1.5,0,2.3-0.8,2.2-2.4l-0.1-7.4L113.7,46.2z"/>
<polygon class="st0" points="117.2,57.4 117.2,57.4 117,46.2 119.1,46 124.2,53.8 124.1,46.1 126.1,46 126.2,46 126.4,57.2 
	124.3,57.4 119.2,49.7 119.4,57.3 117.3,57.5 "/>
<polygon class="st0" points="117.2,57.3 117.1,46.2 119.1,46.1 124.3,54 124.1,46.1 126.1,46 126.3,57.2 124.3,57.3 119.1,49.4 
	119.3,57.3 117.3,57.4 "/>
<polygon class="st0" points="117.2,57.3 117.1,46.2 117.2,46.1 119.1,46.1 124.2,53.8 124.1,46.1 124.2,46 126.1,46 126.2,46.1 
	126.3,57.2 126.3,57.3 124.3,57.3 119.2,49.6 119.3,57.3 119.2,57.4 117.3,57.4 "/>
<path class="st0" d="M126.3,57.2h-2l-5.1-7.9l0.1,7.9h-2L117.2,46h2l5.1,7.9l-0.1-8h2L126.3,57.2z"/>
<path class="st0" d="M129.8,57.3L129.8,57.3L129.6,46c0.1-0.1,3.5-0.2,3.5-0.2c1,0,1.9,0.2,2.7,0.6c0.8,0.4,1.4,1.1,1.9,1.9
	c0.4,0.8,0.7,1.8,0.7,2.8v0.6c0,1.1-0.2,2-0.6,2.9c-0.4,0.8-1,1.5-1.9,1.9c-0.8,0.5-1.7,0.7-2.8,0.7L129.8,57.3L129.8,57.3z
	 M131.9,55.5l1.2-0.1c1,0,1.8-0.3,2.3-0.9c0.5-0.6,0.8-1.5,0.8-2.7v-0.6c0-1.2-0.3-2.1-0.8-2.7c-0.5-0.6-1.2-0.9-2.2-0.9l0,0h-1.3
	V55.5z"/>
<path class="st0" d="M129.8,57.2L129.7,46l3.4-0.1c1,0,1.9,0.2,2.7,0.6c0.8,0.4,1.4,1.1,1.8,1.9c0.4,0.8,0.7,1.7,0.7,2.8v0.6
	c0,1.1-0.2,2-0.6,2.8c-0.4,0.8-1,1.4-1.8,1.9c-0.8,0.4-1.7,0.7-2.7,0.7H129.8L129.8,57.2z M133.1,47.6h-1.4l0.1,8l1.2-0.1
	c1,0,1.8-0.3,2.3-1c0.5-0.6,0.8-1.5,0.8-2.7v-0.6c0-1.2-0.3-2.1-0.8-2.7C134.9,47.9,134.1,47.6,133.1,47.6L133.1,47.6L133.1,47.6z"
	/>
<path class="st0" d="M129.8,57.2L129.6,46l0.1-0.1h3.3c1.1,0,1.9,0.2,2.7,0.6c0.8,0.4,1.4,1.1,1.8,1.9c0.4,0.8,0.7,1.8,0.7,2.8v0.6
	c0,1.1-0.2,2-0.6,2.8c-0.4,0.8-1,1.5-1.8,1.9s-1.7,0.7-2.7,0.7H129.8L129.8,57.2z M131.9,55.5h1.2c1,0,1.8-0.3,2.3-1
	c0.5-0.6,0.8-1.5,0.8-2.7v-0.6c0-1.2-0.3-2.1-0.8-2.7c-0.5-0.6-1.3-0.9-2.2-0.9v-0.1l-0.1,0.1h-1.3L131.9,55.5z"/>
<path class="st0" d="M129.8,57.2L129.7,46h3.3c1,0,1.9,0.2,2.7,0.6c0.8,0.4,1.4,1,1.8,1.9c0.4,0.8,0.7,1.7,0.7,2.8v0.6
	c0,1.1-0.2,2-0.6,2.8c-0.4,0.8-1,1.4-1.8,1.9c-0.8,0.4-1.7,0.7-2.7,0.7L129.8,57.2z M131.7,47.6l0.1,8h1.3c1,0,1.8-0.3,2.4-1
	c0.5-0.6,0.8-1.6,0.8-2.7v-0.6c0-1.2-0.3-2.1-0.8-2.8c-0.5-0.6-1.3-0.9-2.3-0.9H131.7z"/>
<path class="st0" d="M139.8,57.2L139.8,57.2l4.1-11.4l1.9-0.1l4.5,11.2l-0.1,0.1l-2.1,0.1l-1.1-2.7l-4.3,0.1l-0.8,2.5L139.8,57.2
	L139.8,57.2z M143.5,52.8l3-0.1l-1.6-4.1L143.5,52.8z"/>
<path class="st0" d="M139.8,57.1l4.2-11.2l1.8-0.1l4.5,11.2l-2.1,0.1l-1-2.6l-4.3,0.1l-0.8,2.6L139.8,57.1L139.8,57.1z M143.4,52.9
	l3.2-0.1l-1.7-4.4L143.4,52.9z"/>
<path class="st0" d="M139.8,57.1l4.2-11.2l1.8-0.1l4.5,11.2l-0.1,0.1h-2.1l-1-2.6l-4.3,0.1l-0.8,2.6L139.8,57.1L139.8,57.1z
	 M143.4,52.8h3.1l-1.6-4.3L143.4,52.8z"/>
<path class="st0" d="M147.2,54.4h-4.4l-0.9,2.6h-2l4.2-11.2h1.8l4.4,11.1h-2.1L147.2,54.4z M143.3,52.9h3.3l-1.7-4.6L143.3,52.9z"/>
<polygon class="st0" points="154.4,57 154.3,57 154.2,47.4 150.8,47.5 150.7,45.8 150.7,45.7 159.8,45.6 159.9,47.3 159.8,47.4 
	156.3,47.4 156.5,56.9 154.4,57.1 "/>
<polygon class="st0" points="154.4,56.9 154.3,47.3 150.8,47.4 150.7,45.8 159.8,45.7 159.8,47.3 156.3,47.4 156.4,56.9 154.4,57 
	"/>
<polygon class="st0" points="154.3,56.9 154.2,47.4 150.8,47.5 150.7,47.4 150.7,45.8 150.8,45.7 159.8,45.6 159.8,45.7 159.9,47.3 
	159.8,47.4 156.3,47.4 156.4,56.9 156.4,57 154.4,57 "/>
<path class="st0" d="M159.8,47.3h-3.5l0.1,9.6h-2l-0.1-9.6h-3.5v-1.6l9-0.1V47.3z"/>
<polygon class="st0" points="162.7,57 162.7,56.9 162.5,45.7 164.6,45.5 164.7,45.6 164.8,56.8 162.8,57 "/>
<polygon class="st0" points="162.7,56.9 162.6,45.7 164.6,45.6 164.8,56.8 162.8,56.9 "/>
<polygon class="st0" points="162.7,56.9 162.6,45.7 162.6,45.6 164.6,45.6 164.7,45.7 164.8,56.8 164.7,56.9 162.8,56.9 "/>
<path class="st0" d="M164.7,56.8h-2l-0.1-11.2h2L164.7,56.8z"/>
<path class="st0" d="M172.7,57c-0.9,0-1.7-0.2-2.5-0.7c-0.7-0.4-1.3-1.1-1.7-1.9c-0.4-0.8-0.6-1.8-0.6-2.9v-0.6
	c0-1.1,0.2-2.1,0.6-2.9c0.4-0.9,1-1.5,1.7-2s1.6-0.7,2.5-0.7c1,0,1.8,0.2,2.5,0.6c0.7,0.4,1.3,1.1,1.7,1.9c0.4,0.8,0.6,1.8,0.6,2.9
	v0.6c0,1.1-0.2,2.1-0.6,2.9c-0.4,0.8-0.9,1.5-1.7,2C174.6,56.8,173.7,57,172.7,57L172.7,57z M172.7,47.1c-0.8,0.1-1.5,0.4-1.9,1
	c-0.5,0.6-0.7,1.6-0.7,2.7v0.6c0,1.2,0.3,2.1,0.7,2.8c0.5,0.6,1.1,0.9,1.9,0.9c0.9,0,1.5-0.3,1.9-1c0.4-0.6,0.7-1.6,0.6-2.8v-0.6
	c0-1.2-0.3-2.1-0.7-2.8C174.1,47.5,173.5,47.2,172.7,47.1L172.7,47.1z"/>
<path class="st0" d="M172.7,57c-0.9,0-1.7-0.2-2.4-0.6c-0.7-0.4-1.3-1.1-1.7-1.9c-0.4-0.8-0.6-1.8-0.6-2.8v-0.6
	c0-1.1,0.2-2.1,0.6-2.9c0.4-0.8,0.9-1.5,1.7-2c0.7-0.5,1.5-0.7,2.5-0.7l0,0c1,0,1.8,0.2,2.5,0.6c0.7,0.4,1.3,1.1,1.7,1.9
	c0.4,0.8,0.6,1.8,0.6,2.9v0.6c0,1.1-0.2,2.1-0.5,2.9c-0.4,0.8-0.9,1.5-1.6,1.9C174.5,56.7,173.7,56.9,172.7,57L172.7,57z
	 M172.7,47.1c-0.8,0-1.5,0.3-1.9,1c-0.5,0.7-0.7,1.6-0.7,2.8v0.6c0,1.2,0.3,2.2,0.7,2.8c0.5,0.6,1.1,1,2,1s1.5-0.3,2-1
	c0.5-0.6,0.7-1.6,0.7-2.8v-0.6c0-1.2-0.3-2.2-0.7-2.8C174.2,47.4,173.5,47.1,172.7,47.1L172.7,47.1L172.7,47.1z"/>
<path class="st0" d="M172.7,57c-0.9,0-1.7-0.2-2.4-0.6c-0.7-0.4-1.3-1.1-1.7-1.9c-0.4-0.8-0.6-1.8-0.6-2.9V51c0-1.1,0.2-2.1,0.6-2.9
	c0.4-0.8,0.9-1.5,1.7-2c0.7-0.5,1.6-0.7,2.5-0.7l0,0c1,0,1.8,0.2,2.5,0.6c0.7,0.4,1.3,1.1,1.7,1.9c0.4,0.8,0.6,1.8,0.6,2.9v0.6
	c0,1.1-0.2,2.1-0.6,2.9c-0.4,0.8-0.9,1.5-1.7,2C174.5,56.7,173.7,57,172.7,57L172.7,57z M172.7,47.1c-0.8,0-1.5,0.3-1.9,1
	c-0.5,0.6-0.7,1.6-0.7,2.8v0.6c0,1.2,0.3,2.1,0.7,2.8c0.5,0.6,1.1,1,1.9,1c0.9,0,1.5-0.3,2-1c0.5-0.6,0.7-1.6,0.7-2.8v-0.6
	c0-1.2-0.3-2.2-0.7-2.8C174.2,47.4,173.5,47.1,172.7,47.1L172.7,47.1L172.7,47.1z"/>
<path class="st0" d="M177.4,51.4c0,1.1-0.2,2.1-0.5,2.9c-0.4,0.8-0.9,1.5-1.6,1.9c-0.7,0.5-1.5,0.7-2.5,0.7c-0.9,0-1.7-0.2-2.5-0.6
	c-0.7-0.4-1.3-1.1-1.7-1.9c-0.4-0.8-0.6-1.8-0.6-2.8V51c0-1.1,0.2-2.1,0.6-2.9c0.4-0.8,0.9-1.5,1.6-1.9c0.7-0.5,1.5-0.7,2.4-0.7
	s1.7,0.2,2.5,0.6c0.7,0.4,1.3,1.1,1.7,1.9c0.4,0.8,0.6,1.8,0.6,2.9V51.4z M175.4,50.8c0-1.2-0.3-2.2-0.7-2.8c-0.5-0.7-1.2-1-2-1
	s-1.5,0.3-2,1s-0.7,1.6-0.7,2.8v0.6c0,1.2,0.3,2.2,0.8,2.8c0.5,0.7,1.2,1,2,1c0.9,0,1.5-0.3,2-1s0.7-1.6,0.7-2.9L175.4,50.8z"/>
<polygon class="st0" points="180.6,56.8 180.6,56.7 180.4,45.5 182.5,45.4 187.6,53.1 187.5,45.4 189.5,45.3 189.6,45.4 189.8,56.6 
	187.7,56.7 182.6,49 182.8,56.6 180.7,56.8 "/>
<polygon class="st0" points="180.6,56.7 180.5,45.5 182.5,45.4 187.7,53.4 187.5,45.4 189.5,45.4 189.7,56.6 187.7,56.6 182.5,48.8 
	182.7,56.6 180.7,56.7 "/>
<polygon class="st0" points="180.6,56.7 180.5,45.5 180.6,45.4 182.5,45.4 187.6,53.1 187.5,45.4 187.6,45.4 189.5,45.3 189.6,45.4 
	189.7,56.6 189.7,56.6 187.7,56.7 182.6,49 182.7,56.6 182.7,56.7 180.7,56.7 "/>
<path class="st0" d="M189.7,56.6h-2l-5.1-7.9l0.1,7.9h-2l-0.1-11.2h2l5.1,7.9l-0.1-8h2L189.7,56.6z"/>
<path class="st0" d="M36.8,0C16.5,0,0,16.5,0,36.8c0,20.3,16.5,36.8,36.8,36.8c20.3,0,36.8-16.5,36.8-36.8C73.6,16.5,57.1,0,36.8,0z
	 M27,37.9c-0.5,0.2-1.2,0.5-1.5,0.7c-0.5,0.3-1.3,0.9-1.7,1.5c-0.3,0.5-0.6,1.2-0.7,1.6C23,42,23,42.4,23,42.9
	c0,1.1,0.2,2.6,0.6,3.7c0.4,1.2,0.7,1.6,1.2,2.7c0.2,0.5,0.4,1,0.5,1.2c0,0.1,0,0.2,0,0.3c-0.1,0.2-0.4,0.6-0.9,0.9
	c-0.9,0.5-2.7,0.6-3.6,0.6c-0.9,0-2.8-0.2-3.6-0.6c-0.5-0.3-0.8-0.7-0.9-0.9c-0.1-0.1-0.1-0.2,0-0.3c0.1-0.2,0.3-0.7,0.5-1.2
	c0.5-1.2,0.7-1.6,1.2-2.7c0.4-1,0.6-2.5,0.6-3.7c0-0.5,0-0.9-0.1-1.2c-0.1-0.4-0.4-1.1-0.7-1.6c-0.4-0.7-1.2-1.3-1.7-1.5
	c-0.4-0.2-1.6-0.7-2.1-0.9c-0.6-0.3-1.4-0.9-1.9-1.3c-0.6-0.5-1.7-1.6-2.2-2.1c-0.9-1.1-1.7-2.3-2-3.7c-0.5-1.7-0.5-2.4-0.5-2.9
	c-0.3-0.2-0.2-0.3-0.1-0.3c0.5,0,2.1-0.1,7.9-0.1c0.1,0,0.2,0.1,0.3,0.2c1.6,4.3,5.9,7.9,11.5,9.9C27.2,37.5,27.2,37.8,27,37.9z
	 M41.2,50.2c0.7,1.9,1.1,2.6,1.9,4.5c0.3,0.8,0.6,1.6,0.8,2c0.1,0.2,0.1,0.4,0,0.5c-0.2,0.3-0.7,1-1.5,1.4c-1.4,0.8-4.4,1.1-5.9,1.1
	c-1.5-0.1-4.5-0.3-5.9-1.1c-0.8-0.4-1.3-1.1-1.5-1.4c0-0.2-0.1-0.3,0-0.5c0.1-0.4,0.5-1.2,0.8-2c0.8-2,1.2-2.6,1.9-4.5
	c0.7-1.6,1-4.1,1-5.9c0-0.8,0-1.4-0.1-1.9c-0.2-0.7-0.7-1.8-1.2-2.6c-0.7-1.1-2-2.1-2.8-2.5c-0.6-0.3-2.5-1.1-3.3-1.5
	c-1-0.5-2.2-1.3-3.1-2c-1-0.8-2.9-2.6-3.6-3.5c-1.4-1.8-2.7-3.8-3.3-6c-0.7-2.8-0.7-3.9-0.8-4.8c-0.1-0.2,0-0.3,0.2-0.3
	c1,0,5-0.1,21.8-0.1c16.8,0,20.9,0.1,21.8,0.1c0.2,0,0.3,0.1,0,0.3c-0.1,0.9,0,2.1-0.8,4.8c-0.6,2.2-1.9,4.3-3.3,6
	c-0.8,0.9-2.6,2.8-3.6,3.5c-0.8,0.6-2.1,1.5-3.1,2c-0.7,0.4-2.7,1.2-3.3,1.5c-0.8,0.5-2.1,1.4-2.8,2.5c-0.6,0.8-1,1.9-1.2,2.6
	c-0.1,0.4-0.1,1.1-0.1,1.9C40.3,46.1,40.6,48.5,41.2,50.2z M66.1,27.7c0,0.5,0,1.2-0.5,2.9c-0.3,1.4-1.1,2.6-2,3.7
	c-0.5,0.5-1.6,1.6-2.2,2.1c-0.5,0.4-1.3,1-1.9,1.3c-0.5,0.2-1.7,0.7-2.1,0.9c-0.5,0.2-1.3,0.8-1.7,1.5c-0.3,0.5-0.6,1.2-0.7,1.6
	c-0.1,0.3-0.1,0.7-0.1,1.2c0,1.2,0.2,2.7,0.6,3.7c0.5,1.1,0.7,1.5,1.2,2.7c0.2,0.5,0.4,1,0.5,1.2c0.1,0.1,0.1,0.2,0,0.3
	c-0.1,0.2-0.4,0.6-0.9,0.9c-0.8,0.4-2.7,0.6-3.6,0.6c-0.9,0-2.7-0.1-3.6-0.6c-0.5-0.3-0.8-0.7-0.9-0.9c0-0.1,0-0.2,0-0.3
	c0.1-0.2,0.3-0.7,0.5-1.2c0.5-1.1,0.8-1.5,1.2-2.7c0.4-1.1,0.6-2.6,0.6-3.7c0-0.5,0-0.9-0.1-1.2c-0.1-0.4-0.4-1.1-0.7-1.6
	c-0.4-0.6-1.2-1.2-1.7-1.5c-0.3-0.2-1-0.5-1.5-0.7c-0.3-0.1-0.2-0.4,0-0.5c5.6-2,9.9-5.6,11.5-9.9c0.1-0.1,0.2-0.2,0.3-0.2
	c5.8,0,7.4,0.1,7.9,0.1C66.3,27.4,66.4,27.5,66.1,27.7z"/>
<g>
	<path class="st0" d="M195.7,45.8h-1.2v3.3H194v-3.3h-1.2v-0.4h2.9V45.8z"/>
	<path class="st0" d="M196.9,45.4l1.2,3l1.2-3h0.6v3.7h-0.5v-1.5V46l-1.2,3H198l-1.2-3v1.6v1.5h-0.5v-3.7H196.9z"/>
</g>
</svg>
