<svg xmlns="http://www.w3.org/2000/svg" viewBox="0 0 73.6 73.6">
    <style>
        .cups { fill: #fff; }
        .circle { fill: #255aa8; }
        @media (prefers-color-scheme: dark) {
            .cups { fill: #255aa8; }
            .circle { fill: #fff; }
        }
    </style>
    <circle class="circle" cx="36.8" cy="36.8" r="36.8"/>
    <path class="cups" d="M7.3,27.4c.5,0,2.1-.1,7.9-.1.1,0,.2.1.3.2,1.6,4.3,5.9,7.9,11.5,9.9a.28.28,0,0,1,0,.5,10.74,10.74,0,0,0-1.5.7,5.93,5.93,0,0,0-1.7,1.5,7.09,7.09,0,0,0-.7,1.6,4.12,4.12,0,0,0-.1,1.2,11.93,11.93,0,0,0,.6,3.7,22.07,22.07,0,0,0,1.2,2.7c.2.5.4,1,.5,1.2v.3a2.48,2.48,0,0,1-.9.9,9.09,9.09,0,0,1-3.6.6h0a10.88,10.88,0,0,1-3.6-.6,2.48,2.48,0,0,1-.9-.9.19.19,0,0,1,0-.3c.1-.2.3-.7.5-1.2.5-1.2.7-1.6,1.2-2.7a11,11,0,0,0,.6-3.7,4.12,4.12,0,0,0-.1-1.2,7.09,7.09,0,0,0-.7-1.6,3.94,3.94,0,0,0-1.7-1.5c-.4-.2-1.6-.7-2.1-.9a12.74,12.74,0,0,1-1.9-1.3c-.6-.5-1.7-1.6-2.2-2.1a8.92,8.92,0,0,1-2-3.7,9,9,0,0,1-.5-2.9c-.3-.2-.2-.3-.1-.3"/>
    <path class="cups" d="M58.4,19.2c-.9,0-5-.1-21.8-.1s-20.8.1-21.8.1c-.2,0-.3.1-.2.3a25.7,25.7,0,0,0,.8,4.8,17.66,17.66,0,0,0,3.3,6,30,30,0,0,0,3.6,3.5,20.45,20.45,0,0,0,3.1,2c.8.4,2.7,1.2,3.3,1.5a8,8,0,0,1,2.8,2.5,11.86,11.86,0,0,1,1.2,2.6,10.32,10.32,0,0,1,.1,1.9,16.63,16.63,0,0,1-1,5.9c-.7,1.9-1.1,2.5-1.9,4.5-.3.8-.7,1.6-.8,2-.1.2,0,.3,0,.5a4.1,4.1,0,0,0,1.5,1.4c1.4.8,4.4,1,5.9,1.1h0c1.5,0,4.5-.3,5.9-1.1a4.1,4.1,0,0,0,1.5-1.4.45.45,0,0,0,0-.5c-.2-.4-.5-1.2-.8-2-.8-1.9-1.2-2.6-1.9-4.5a23.52,23.52,0,0,1-1-5.9,9.76,9.76,0,0,1,.1-1.9,8.53,8.53,0,0,1,1.2-2.6,9.19,9.19,0,0,1,2.8-2.5c.6-.3,2.6-1.1,3.3-1.5a23.6,23.6,0,0,0,3.1-2,29.77,29.77,0,0,0,3.6-3.5,16.77,16.77,0,0,0,3.3-6,18.39,18.39,0,0,0,.8-4.8c.3-.2.2-.3,0-.3"/>
    <path class="cups" d="M66.2,27.4c-.5,0-2.1-.1-7.9-.1-.1,0-.2.1-.3.2-1.6,4.3-5.9,7.9-11.5,9.9-.2.1-.3.4,0,.5a10.74,10.74,0,0,1,1.5.7,5.93,5.93,0,0,1,1.7,1.5,7.09,7.09,0,0,1,.7,1.6,4.12,4.12,0,0,1,.1,1.2,11.93,11.93,0,0,1-.6,3.7,22.07,22.07,0,0,1-1.2,2.7c-.2.5-.4,1-.5,1.2v.3a2.48,2.48,0,0,0,.9.9,9.09,9.09,0,0,0,3.6.6h0a10.88,10.88,0,0,0,3.6-.6,2.48,2.48,0,0,0,.9-.9.19.19,0,0,0,0-.3c-.1-.2-.3-.7-.5-1.2-.5-1.2-.7-1.6-1.2-2.7a11,11,0,0,1-.6-3.7,4.12,4.12,0,0,1,.1-1.2,7.09,7.09,0,0,1,.7-1.6,3.94,3.94,0,0,1,1.7-1.5c.4-.2,1.6-.7,2.1-.9a12.74,12.74,0,0,0,1.9-1.3c.6-.5,1.7-1.6,2.2-2.1a8.92,8.92,0,0,0,2-3.7,9,9,0,0,0,.5-2.9c.3-.2.2-.3.1-.3"/>
    <path class="circle" d="M195.7,45.8h-1.2v3.3H194V45.8h-1.2v-.4h2.9Z"/>
    <path class="circle" d="M196.9,45.4l1.2,3,1.2-3h.6v3.7h-.5V46l-1.2,3H198l-1.2-3v3.1h-.5V45.4Z"/>
</svg>